<svg width="25" height="24" viewBox="0 0 25 24" fill="none" xmlns="http://www.w3.org/2000/svg">
<path d="M17.104 11.048C17.7131 10.0101 17.9761 8.80528 17.855 7.60797C17.676 5.82397 16.68 4.24697 15.052 3.16797L13.947 4.83397C15.066 5.57597 15.747 6.63297 15.865 7.80797C15.9194 8.35407 15.8514 8.90543 15.666 9.42195C15.4806 9.93847 15.1823 10.4072 14.793 10.794L13.601 11.986L15.219 12.461C19.451 13.701 19.5 17.957 19.5 18H21.5C21.5 16.211 20.544 12.715 17.104 11.048Z" fill="#02080B"/>
<path d="M10 12C12.206 12 14 10.206 14 8C14 5.794 12.206 4 10 4C7.794 4 6 5.794 6 8C6 10.206 7.794 12 10 12ZM10 6C11.103 6 12 6.897 12 8C12 9.103 11.103 10 10 10C8.897 10 8 9.103 8 8C8 6.897 8.897 6 10 6ZM11.5 13H8.5C5.191 13 2.5 15.691 2.5 19V20H4.5V19C4.5 16.794 6.294 15 8.5 15H11.5C13.706 15 15.5 16.794 15.5 19V20H17.5V19C17.5 15.691 14.809 13 11.5 13Z" fill="#02080B"/>
</svg>
