<svg width="25" height="24" viewBox="0 0 25 24" fill="none" xmlns="http://www.w3.org/2000/svg">
<path d="M12.5 6C11.457 6.00132 10.4572 6.41622 9.71968 7.1537C8.9822 7.89118 8.5673 8.89104 8.56598 9.934H10.566C10.566 8.867 11.434 8 12.5 8C13.566 8 14.434 8.867 14.434 9.934C14.434 10.532 13.953 10.966 13.218 11.56C12.9779 11.7481 12.7472 11.948 12.527 12.159C11.529 13.156 11.5 14.215 11.5 14.333V15H13.5L13.499 14.367C13.5 14.351 13.532 13.981 13.94 13.574C14.09 13.424 14.279 13.274 14.475 13.116C15.254 12.485 16.433 11.532 16.433 9.934C16.4322 8.89106 16.0176 7.89104 15.2802 7.15347C14.5428 6.41591 13.5429 6.00106 12.5 6ZM11.5 16H13.5V18H11.5V16Z" fill="#02080B"/>
<path d="M12.5 2C6.986 2 2.5 6.486 2.5 12C2.5 17.514 6.986 22 12.5 22C18.014 22 22.5 17.514 22.5 12C22.5 6.486 18.014 2 12.5 2ZM12.5 20C8.089 20 4.5 16.411 4.5 12C4.5 7.589 8.089 4 12.5 4C16.911 4 20.5 7.589 20.5 12C20.5 16.411 16.911 20 12.5 20Z" fill="#02080B"/>
</svg>
