<svg width="19" height="20" viewBox="0 0 19 20" fill="none" xmlns="http://www.w3.org/2000/svg">
<path d="M9.04183 8.85384V11.1455C9.04183 11.525 9.34937 11.833 9.72933 11.833H14.6835C14.4547 12.482 14.1078 13.0696 13.6728 13.577L16.438 15.9736C17.823 14.3671 18.6668 12.2822 18.6668 9.99967C18.6668 9.62017 18.6375 9.22601 18.5742 8.76126C18.528 8.42072 18.2369 8.16634 17.8932 8.16634H9.72933C9.34937 8.16634 9.04183 8.47434 9.04183 8.85384ZM4.28066 11.7235C4.101 11.1808 4.00016 10.6019 4.00016 9.99967C4.00016 9.39742 4.101 8.81855 4.28066 8.27588L1.27537 5.9778C0.678163 7.19376 0.333496 8.55547 0.333496 9.99967C0.333496 11.4439 0.678163 12.8056 1.27583 14.0216L4.28066 11.7235ZM12.6466 14.5074C11.7487 15.1348 10.6607 15.4997 9.50016 15.4997C7.56966 15.4997 5.87154 14.4978 4.88979 12.9889L1.97387 15.2187C3.6312 17.6011 6.38441 19.1663 9.50016 19.1663C11.7772 19.1663 13.858 18.3267 15.4626 16.948L12.6466 14.5074ZM15.6945 3.2608C13.9978 1.69513 11.7978 0.833008 9.50016 0.833008C6.38441 0.833008 3.6312 2.39822 1.97387 4.78109L4.88979 7.01088C5.87154 5.50159 7.56966 4.49967 9.50016 4.49967C10.8495 4.49967 12.1475 4.99513 13.1549 5.89438C13.4267 6.1373 13.8415 6.12538 14.0991 5.86734L15.7147 4.25217C15.8472 4.12017 15.9196 3.93913 15.9159 3.75213C15.9122 3.56513 15.832 3.38776 15.6945 3.2608Z" fill="white"/>
</svg>
