<svg width="25" height="24" viewBox="0 0 25 24" fill="none" xmlns="http://www.w3.org/2000/svg">
<path d="M13.2099 2.28994C13.117 2.19621 13.0064 2.12182 12.8845 2.07105C12.7627 2.02028 12.632 1.99414 12.4999 1.99414C12.3679 1.99414 12.2372 2.02028 12.1154 2.07105C11.9935 2.12182 11.8829 2.19621 11.7899 2.28994L2.78994 11.2899C2.69621 11.3829 2.62182 11.4935 2.57105 11.6154C2.52028 11.7372 2.49414 11.8679 2.49414 11.9999C2.49414 12.132 2.52028 12.2627 2.57105 12.3845C2.62182 12.5064 2.69621 12.617 2.78994 12.7099C2.88338 12.8026 2.99419 12.8759 3.11603 12.9257C3.23787 12.9755 3.36833 13.0007 3.49994 12.9999H4.49994V19.9999C4.49994 20.5304 4.71065 21.0391 5.08573 21.4142C5.4608 21.7892 5.96951 21.9999 6.49994 21.9999H18.4999C19.0304 21.9999 19.5391 21.7892 19.9142 21.4142C20.2892 21.0391 20.4999 20.5304 20.4999 19.9999V12.9999H21.4999C21.7652 12.9999 22.0195 12.8946 22.207 12.707C22.3946 12.5195 22.4999 12.2652 22.4999 11.9999C22.5007 11.8683 22.4755 11.7379 22.4257 11.616C22.3759 11.4942 22.3026 11.3834 22.2099 11.2899L13.2099 2.28994ZM6.49994 19.9999V10.4099L12.4999 4.40994L18.4999 10.4099V19.9999H6.49994Z" fill="#02080B"/>
</svg>
