<svg width="24" height="24" viewBox="0 0 24 24" fill="none" xmlns="http://www.w3.org/2000/svg">
<path d="M4.22196 19.7777C4.68584 20.2423 5.23693 20.6106 5.84358 20.8615C6.45023 21.1123 7.10048 21.2409 7.75696 21.2397C8.41359 21.2409 9.06398 21.1123 9.67079 20.8614C10.2776 20.6105 10.8289 20.2422 11.293 19.7777L14.121 16.9487L12.707 15.5347L9.87896 18.3637C9.31543 18.9247 8.55263 19.2397 7.75746 19.2397C6.96229 19.2397 6.19949 18.9247 5.63596 18.3637C5.07447 17.8004 4.75917 17.0376 4.75917 16.2422C4.75917 15.4469 5.07447 14.684 5.63596 14.1207L8.46496 11.2927L7.05096 9.87872L4.22196 12.7067C3.28577 13.6452 2.76001 14.9166 2.76001 16.2422C2.76001 17.5678 3.28577 18.8393 4.22196 19.7777ZM19.778 11.2927C20.7137 10.354 21.2391 9.08264 21.2391 7.75722C21.2391 6.4318 20.7137 5.16043 19.778 4.22172C18.8395 3.28552 17.568 2.75977 16.2425 2.75977C14.9169 2.75977 13.6454 3.28552 12.707 4.22172L9.87896 7.05072L11.293 8.46472L14.121 5.63572C14.6845 5.07471 15.4473 4.75975 16.2425 4.75975C17.0376 4.75975 17.8004 5.07471 18.364 5.63572C18.9255 6.19899 19.2408 6.96189 19.2408 7.75722C19.2408 8.55255 18.9255 9.31545 18.364 9.87872L15.535 12.7067L16.949 14.1207L19.778 11.2927Z" fill="#02080B"/>
<path d="M8.46395 16.9498L7.04895 15.5358L15.536 7.0498L16.95 8.4648L8.46395 16.9498Z" fill="#02080B"/>
</svg>
