<svg width="86" height="44" viewBox="0 0 86 44" fill="none" xmlns="http://www.w3.org/2000/svg">
<g filter="url(#filter0_diii_8454_1740)">
<rect x="2.5" y="1" width="81" height="40" rx="20" fill="#D83232" shape-rendering="crispEdges"/>
<path d="M17.5 15V27L27.5 21L17.5 15Z" fill="white"/>
<path d="M45.625 19.4766C45.625 20.1901 45.4609 20.8229 45.1328 21.375C44.8099 21.9219 44.349 22.3516 43.75 22.6641C43.151 22.9714 42.4375 23.125 41.6094 23.125H38.875V27H36.5703V15.9922H41.5156C42.8333 15.9922 43.8464 16.2969 44.5547 16.9062C45.2682 17.5104 45.625 18.3672 45.625 19.4766ZM43.3047 19.5156C43.3047 18.3594 42.6224 17.7812 41.2578 17.7812H38.875V21.3516H41.3203C41.9557 21.3516 42.4453 21.1953 42.7891 20.8828C43.1328 20.5651 43.3047 20.1094 43.3047 19.5156ZM49.4844 15.4062V27H47.2891V15.4062H49.4844ZM53.6953 27.1562C52.8776 27.1562 52.2396 26.9349 51.7812 26.4922C51.3229 26.0443 51.0938 25.4167 51.0938 24.6094C51.0938 23.7344 51.3776 23.0703 51.9453 22.6172C52.5182 22.1641 53.3464 21.9271 54.4297 21.9062L56.25 21.875V21.4453C56.25 20.8932 56.1536 20.4844 55.9609 20.2188C55.7682 19.9479 55.4531 19.8125 55.0156 19.8125C54.6094 19.8125 54.3099 19.9062 54.1172 20.0938C53.9297 20.276 53.8125 20.5807 53.7656 21.0078L51.4766 20.8984C51.763 19.2266 52.974 18.3906 55.1094 18.3906C56.1771 18.3906 57 18.6536 57.5781 19.1797C58.1562 19.7057 58.4453 20.4531 58.4453 21.4219V24.5C58.4453 24.974 58.4974 25.3021 58.6016 25.4844C58.7109 25.6615 58.8906 25.75 59.1406 25.75C59.3073 25.75 59.4688 25.7344 59.625 25.7031V26.8906C59.3542 26.9583 59.1224 27.0078 58.9297 27.0391C58.737 27.0755 58.5 27.0938 58.2188 27.0938C57.6667 27.0938 57.2578 26.9583 56.9922 26.6875C56.7318 26.4167 56.5755 26.0182 56.5234 25.4922H56.4766C56.1693 26.0443 55.7839 26.4609 55.3203 26.7422C54.8568 27.0182 54.3151 27.1562 53.6953 27.1562ZM56.25 23.0859L55.125 23.1016C54.6094 23.1276 54.2474 23.1823 54.0391 23.2656C53.8255 23.3594 53.6615 23.5 53.5469 23.6875C53.4375 23.875 53.3828 24.125 53.3828 24.4375C53.3828 24.8385 53.474 25.138 53.6562 25.3359C53.8438 25.5286 54.0911 25.625 54.3984 25.625C54.7422 25.625 55.0573 25.5312 55.3438 25.3438C55.625 25.1562 55.8464 24.8984 56.0078 24.5703C56.1693 24.237 56.25 23.8854 56.25 23.5156V23.0859ZM61.7422 30.3203C61.2057 30.3203 60.7448 30.2865 60.3594 30.2188V28.6562C60.651 28.6979 60.9036 28.7188 61.1172 28.7188C61.6276 28.7188 62.0078 28.5807 62.2578 28.3047C62.513 28.0286 62.7604 27.5651 63 26.9141L59.6562 18.5469H61.9766L63.3047 22.5078C63.4089 22.7943 63.526 23.1536 63.6562 23.5859C63.7865 24.0182 63.9323 24.5286 64.0938 25.1172C64.2135 24.638 64.3281 24.1953 64.4375 23.7891C64.5469 23.3828 64.6667 22.9661 64.7969 22.5391L66.0469 18.5469H68.3438L65 27.4453C64.8646 27.8047 64.7214 28.1224 64.5703 28.3984C64.4193 28.6745 64.2656 28.9193 64.1094 29.1328C63.7917 29.5651 63.4453 29.8698 63.0703 30.0469C62.6953 30.2292 62.2526 30.3203 61.7422 30.3203Z" fill="white"/>
</g>
<defs>
<filter id="filter0_diii_8454_1740" x="0.5" y="0" width="85" height="65" filterUnits="userSpaceOnUse" color-interpolation-filters="sRGB">
<feFlood flood-opacity="0" result="BackgroundImageFix"/>
<feColorMatrix in="SourceAlpha" type="matrix" values="0 0 0 0 0 0 0 0 0 0 0 0 0 0 0 0 0 0 127 0" result="hardAlpha"/>
<feOffset dy="1"/>
<feGaussianBlur stdDeviation="1"/>
<feComposite in2="hardAlpha" operator="out"/>
<feColorMatrix type="matrix" values="0 0 0 0 0.00784314 0 0 0 0 0.0313726 0 0 0 0 0.0431373 0 0 0 0.05 0"/>
<feBlend mode="normal" in2="BackgroundImageFix" result="effect1_dropShadow_8454_1740"/>
<feBlend mode="normal" in="SourceGraphic" in2="effect1_dropShadow_8454_1740" result="shape"/>
<feColorMatrix in="SourceAlpha" type="matrix" values="0 0 0 0 0 0 0 0 0 0 0 0 0 0 0 0 0 0 127 0" result="hardAlpha"/>
<feOffset dy="-2"/>
<feGaussianBlur stdDeviation="0.5"/>
<feComposite in2="hardAlpha" operator="arithmetic" k2="-1" k3="1"/>
<feColorMatrix type="matrix" values="0 0 0 0 0 0 0 0 0 0 0 0 0 0 0 0 0 0 0.2 0"/>
<feBlend mode="normal" in2="shape" result="effect2_innerShadow_8454_1740"/>
<feColorMatrix in="SourceAlpha" type="matrix" values="0 0 0 0 0 0 0 0 0 0 0 0 0 0 0 0 0 0 127 0" result="hardAlpha"/>
<feOffset dy="2"/>
<feGaussianBlur stdDeviation="0.5"/>
<feComposite in2="hardAlpha" operator="arithmetic" k2="-1" k3="1"/>
<feColorMatrix type="matrix" values="0 0 0 0 1 0 0 0 0 1 0 0 0 0 1 0 0 0 0.25 0"/>
<feBlend mode="normal" in2="effect2_innerShadow_8454_1740" result="effect3_innerShadow_8454_1740"/>
<feColorMatrix in="SourceAlpha" type="matrix" values="0 0 0 0 0 0 0 0 0 0 0 0 0 0 0 0 0 0 127 0" result="hardAlpha"/>
<feOffset dy="32"/>
<feGaussianBlur stdDeviation="12"/>
<feComposite in2="hardAlpha" operator="arithmetic" k2="-1" k3="1"/>
<feColorMatrix type="matrix" values="0 0 0 0 1 0 0 0 0 1 0 0 0 0 1 0 0 0 0.05 0"/>
<feBlend mode="normal" in2="effect3_innerShadow_8454_1740" result="effect4_innerShadow_8454_1740"/>
</filter>
</defs>
</svg>
