<svg width="25" height="24" viewBox="0 0 25 24" fill="none" xmlns="http://www.w3.org/2000/svg">
<path d="M20.75 5.02499L12.852 2.06299L12.149 3.93599L14.984 4.99999H4.5C3.397 4.99999 2.5 5.89699 2.5 6.99999V19C2.5 20.103 3.397 21 4.5 21H20.5C21.603 21 22.5 20.103 22.5 19V6.99999C22.5 5.98199 21.733 5.14999 20.75 5.02499ZM4.5 19V12H20.5V9.99999H4.5V6.99999H20.5L20.501 19H4.5Z" fill="#02080B"/>
<path d="M17 18C18.3807 18 19.5 16.8807 19.5 15.5C19.5 14.1193 18.3807 13 17 13C15.6193 13 14.5 14.1193 14.5 15.5C14.5 16.8807 15.6193 18 17 18Z" fill="#02080B"/>
<path d="M6.5 15H11.499V17H6.5V15Z" fill="#02080B"/>
</svg>
